<svg width="25" height="25" viewBox="0 0 25 25" fill="none" xmlns="http://www.w3.org/2000/svg">
<rect width="25" height="25" rx="12.5" fill="#2F34B3"/>
<path d="M17.7791 13.8162L17.2118 10.1333C17.1562 9.77156 16.973 9.44163 16.6953 9.20317C16.4176 8.96471 16.0637 8.83345 15.6977 8.83313H7.59522C7.22893 8.83309 6.87473 8.96417 6.59672 9.20267C6.31872 9.44116 6.13527 9.7713 6.0796 10.1333L5.01782 17.033C4.98421 17.2515 4.99826 17.4747 5.05899 17.6872C5.11972 17.8998 5.2257 18.0967 5.36966 18.2645C5.51362 18.4323 5.69216 18.5669 5.89303 18.6592C6.09391 18.7516 6.31237 18.7993 6.53344 18.7993H11.6461" stroke="white" stroke-width="0.8" stroke-linecap="round" stroke-linejoin="round"/>
<path d="M13.1796 17.2661L15.4794 19.566L19.3126 15.7328M13.1796 6.53326C13.1796 6.12661 13.018 5.73662 12.7305 5.44908C12.4429 5.16154 12.0529 5 11.6463 5C11.2396 5 10.8497 5.16154 10.5621 5.44908C10.2746 5.73662 10.113 6.12661 10.113 6.53326" stroke="white" stroke-width="0.8" stroke-linecap="round" stroke-linejoin="round"/>
</svg>
