<svg width="25" height="25" viewBox="0 0 25 25" fill="none" xmlns="http://www.w3.org/2000/svg">
<rect width="25" height="25" rx="12.5" fill="#41B32F"/>
<path d="M17.5223 11.8126H13.058C12.7621 11.8129 12.4784 11.9306 12.2692 12.1398C12.0599 12.3491 11.9423 12.6328 11.942 12.9287V16.2769H5.80357V10.6965H4.6875V19.6251H5.80357V17.393H19.1964V19.6251H20.3125V14.6028C20.3116 13.8631 20.0174 13.1539 19.4943 12.6308C18.9712 12.1077 18.2621 11.8135 17.5223 11.8126V11.8126ZM19.1964 16.2769H13.058V12.9287H17.5223C17.9662 12.9291 18.3917 13.1056 18.7056 13.4195C19.0195 13.7334 19.196 14.1589 19.1964 14.6028V16.2769Z" fill="white"/>
<path d="M8.87305 12.3705C9.0386 12.3705 9.20044 12.4196 9.33809 12.5116C9.47574 12.6036 9.58303 12.7343 9.64638 12.8873C9.70974 13.0402 9.72632 13.2085 9.69402 13.3709C9.66172 13.5333 9.582 13.6824 9.46493 13.7995C9.34787 13.9165 9.19872 13.9963 9.03635 14.0286C8.87398 14.0609 8.70567 14.0443 8.55272 13.9809C8.39977 13.9176 8.26904 13.8103 8.17706 13.6726C8.08509 13.535 8.03599 13.3731 8.03599 13.2076C8.03629 12.9857 8.12457 12.7729 8.28149 12.616C8.4384 12.4591 8.65114 12.3708 8.87305 12.3705ZM8.87305 11.2545C8.48676 11.2545 8.10914 11.369 7.78795 11.5836C7.46676 11.7982 7.21642 12.1033 7.0686 12.4602C6.92077 12.817 6.88209 13.2098 6.95745 13.5886C7.03281 13.9675 7.21883 14.3155 7.49198 14.5887C7.76513 14.8618 8.11314 15.0478 8.49201 15.1232C8.87088 15.1985 9.26359 15.1599 9.62048 15.012C9.97736 14.8642 10.2824 14.6139 10.497 14.2927C10.7116 13.9715 10.8262 13.5939 10.8262 13.2076C10.8262 12.6896 10.6204 12.1928 10.2541 11.8265C9.88783 11.4602 9.39105 11.2545 8.87305 11.2545V11.2545ZM15.2905 6.23214H13.0583V4H11.9422V6.23214H9.7101V7.34821H11.9422V9.58036H13.0583V7.34821H15.2905V6.23214Z" fill="white"/>
</svg>
