<svg width="22" height="20" viewBox="0 0 22 20" fill="none" xmlns="http://www.w3.org/2000/svg">
<path d="M10.5512 0.156545C10.6813 0.0550951 10.8416 0 11.0066 0C11.1716 0 11.3319 0.0550951 11.462 0.156545L22 8.37354L21.0885 9.52635L19.8 8.52168V17.5996C19.7992 17.9884 19.6445 18.361 19.3696 18.6358C19.0947 18.9107 18.7221 19.0655 18.3333 19.0663H3.66667C3.27792 19.0655 2.90532 18.9107 2.63043 18.6358C2.35555 18.361 2.20078 17.9884 2.2 17.5996V8.52828L0.911533 9.53295L0 8.38015L10.5512 0.156545ZM9.53333 17.5996H12.4667V11.7329H9.53333V17.5996ZM8.06667 17.5996V11.7329C8.06705 11.3441 8.2217 10.9713 8.49667 10.6963C8.77164 10.4213 9.14447 10.2667 9.53333 10.2663H12.4667C12.8555 10.2667 13.2284 10.4213 13.5033 10.6963C13.7783 10.9713 13.9329 11.3441 13.9333 11.7329V17.5996H18.3333V7.37841L11 1.66575L3.66667 7.38575V17.5996H8.06667Z" fill="#2F76B3"/>
</svg>
