<svg width="25" height="25" viewBox="0 0 25 25" fill="none" xmlns="http://www.w3.org/2000/svg">
<rect width="25" height="25" rx="12.5" fill="#B3572F"/>
<path d="M12.4962 4.6875H12.5038C14.5755 4.68851 16.5619 5.51233 18.0263 6.97776C19.4907 8.44319 20.313 10.4302 20.3125 12.5019C20.312 14.5736 19.4887 16.5602 18.0236 18.0249C16.5585 19.4897 14.5717 20.3125 12.5 20.3125C10.4283 20.3125 8.44148 19.4897 6.97641 18.0249C5.51133 16.5602 4.68801 14.5736 4.6875 12.5019C4.68699 10.4302 5.50934 8.44319 6.9737 6.97776C8.43806 5.51233 10.4245 4.68851 12.4962 4.6875V4.6875ZM12.4962 19.379C14.2427 19.3776 15.9234 18.7126 17.1981 17.5188C18.4728 16.3249 19.2464 14.6913 19.3621 12.9487C19.4778 11.206 18.9271 9.48448 17.8214 8.13255C16.7157 6.78061 15.1377 5.89928 13.4067 5.66693C14.1719 6.99835 14.1796 8.14612 14.1796 8.20733C14.1796 8.6538 14.0022 9.08198 13.6865 9.39768C13.3708 9.71338 12.9426 9.89073 12.4962 9.89073C12.0497 9.89073 11.6215 9.71338 11.3058 9.39768C10.9901 9.08198 10.8128 8.6538 10.8128 8.20733C10.8128 8.08557 10.8611 7.96879 10.9472 7.8827C11.0333 7.7966 11.1501 7.74823 11.2719 7.74823C11.3936 7.74823 11.5104 7.7966 11.5965 7.8827C11.6826 7.96879 11.731 8.08557 11.731 8.20733C11.731 8.41027 11.8116 8.6049 11.9551 8.7484C12.0986 8.8919 12.2932 8.97252 12.4962 8.97252C12.6991 8.97252 12.8937 8.8919 13.0372 8.7484C13.1807 8.6049 13.2614 8.41027 13.2614 8.20733C13.2614 8.19968 13.2384 6.92183 12.2743 5.61337C10.4845 5.6945 8.79672 6.46997 7.56932 7.77516C6.34192 9.08036 5.67151 10.8125 5.70038 12.6039C5.72926 14.3954 6.45516 16.105 7.72399 17.37C8.99281 18.6349 10.7047 19.3556 12.4962 19.379V19.379ZM15.2508 13.2575C15.4022 13.2575 15.5501 13.2127 15.6759 13.1286C15.8018 13.0445 15.8998 12.925 15.9578 12.7852C16.0157 12.6454 16.0308 12.4915 16.0013 12.3431C15.9718 12.1946 15.8989 12.0583 15.7919 11.9513C15.6849 11.8443 15.5485 11.7714 15.4001 11.7419C15.2517 11.7123 15.0978 11.7275 14.958 11.7854C14.8182 11.8433 14.6987 11.9414 14.6146 12.0672C14.5305 12.1931 14.4856 12.341 14.4856 12.4923C14.4856 12.6953 14.5663 12.8899 14.7098 13.0334C14.8533 13.1769 15.0479 13.2575 15.2508 13.2575V13.2575ZM8.97634 12.4923C8.97634 12.6437 9.02122 12.7916 9.1053 12.9175C9.18938 13.0433 9.30888 13.1414 9.4487 13.1993C9.58852 13.2572 9.74237 13.2724 9.8908 13.2428C10.0392 13.2133 10.1756 13.1404 10.2826 13.0334C10.3896 12.9264 10.4625 12.7901 10.492 12.6416C10.5215 12.4932 10.5064 12.3393 10.4485 12.1995C10.3905 12.0597 10.2925 11.9402 10.1666 11.8561C10.0408 11.772 9.89286 11.7272 9.74152 11.7272C9.53858 11.7272 9.34396 11.8078 9.20046 11.9513C9.05696 12.0948 8.97634 12.2894 8.97634 12.4923V12.4923ZM10.0859 15.3006C10.0183 15.4012 9.99331 15.5244 10.0162 15.6433C10.0392 15.7623 10.1082 15.8674 10.2083 15.9357C10.8869 16.3845 11.6826 16.6238 12.4962 16.6238C13.3098 16.6238 14.1054 16.3845 14.7841 15.9357C14.8855 15.8677 14.9558 15.7622 14.9795 15.6424C15.0032 15.5225 14.9783 15.3982 14.9103 15.2967C14.8423 15.1953 14.7368 15.125 14.617 15.1013C14.4972 15.0776 14.3729 15.1025 14.2714 15.1705C13.7454 15.5202 13.1278 15.7068 12.4962 15.7068C11.8645 15.7068 11.2469 15.5202 10.721 15.1705C10.6194 15.1037 10.4956 15.0799 10.3765 15.1043C10.2575 15.1287 10.1529 15.1992 10.0859 15.3006V15.3006Z" fill="white"/>
</svg>
