<svg width="25" height="25" viewBox="0 0 25 25" fill="none" xmlns="http://www.w3.org/2000/svg">
<rect width="25" height="25" rx="12.5" fill="#2FB393"/>
<path d="M17.5226 5.80361V18.0809H7.47754V5.80361H17.5226ZM18.0806 4.6875H6.91948C6.77148 4.6875 6.62953 4.7463 6.52487 4.85095C6.42022 4.95561 6.36142 5.09755 6.36142 5.24556V18.6389C6.36142 18.7869 6.42022 18.9289 6.52487 19.0335C6.62953 19.1382 6.77148 19.197 6.91948 19.197H18.0806C18.2286 19.197 18.3706 19.1382 18.4752 19.0335C18.5799 18.9289 18.6387 18.7869 18.6387 18.6389V5.24556C18.6387 5.09755 18.5799 4.95561 18.4752 4.85095C18.3706 4.7463 18.2286 4.6875 18.0806 4.6875Z" fill="white"/>
<path d="M20.3125 18.0808H4.68691V19.1969H20.3125V18.0808ZM15.848 6.91968H13.6158V8.59385H15.848V6.91968Z" fill="white"/>
<path d="M14.7315 18.0808H10.2671V16.9647C10.2671 16.3727 10.5023 15.8049 10.9209 15.3863C11.3395 14.9677 11.9073 14.7325 12.4993 14.7325C13.0913 14.7325 13.6591 14.9677 14.0777 15.3863C14.4964 15.8049 14.7315 16.3727 14.7315 16.9647V18.0808ZM12.4993 13.6164C11.6113 13.6164 10.7596 13.9691 10.1317 14.5971C9.50375 15.225 9.15098 16.0767 9.15098 16.9647V19.1969H15.8477V16.9647C15.8477 16.0767 15.4949 15.225 14.867 14.5971C14.239 13.9691 13.3874 13.6164 12.4993 13.6164V13.6164ZM15.8477 10.268H13.6154V11.9422H15.8477V10.268ZM11.3832 6.91968H9.15098V8.59385H11.3832V6.91968ZM11.3832 10.268H9.15098V11.9422H11.3832V10.268Z" fill="white"/>
</svg>
