<svg width="25" height="25" viewBox="0 0 25 25" fill="none" xmlns="http://www.w3.org/2000/svg">
<rect width="25" height="25" rx="12.5" fill="#2F76B3"/>
<path d="M13.4191 6.52574C13.541 6.52574 13.6579 6.57415 13.7441 6.66034C13.8303 6.74652 13.8787 6.86341 13.8787 6.98529C13.8787 7.10718 13.8303 7.22407 13.7441 7.31025C13.6579 7.39644 13.541 7.44485 13.4191 7.44485H11.5809C11.459 7.44485 11.3421 7.39644 11.2559 7.31025C11.1697 7.22407 11.1213 7.10718 11.1213 6.98529C11.1213 6.86341 11.1697 6.74652 11.2559 6.66034C11.3421 6.57415 11.459 6.52574 11.5809 6.52574H13.4191ZM14.3382 14.7978C14.3382 15.0416 14.4351 15.2753 14.6074 15.4477C14.7798 15.6201 15.0136 15.7169 15.2574 15.7169C15.5011 15.7169 15.7349 15.6201 15.9073 15.4477C16.0796 15.2753 16.1765 15.0416 16.1765 14.7978C16.1765 14.554 16.0796 14.3202 15.9073 14.1479C15.7349 13.9755 15.5011 13.8787 15.2574 13.8787C15.0136 13.8787 14.7798 13.9755 14.6074 14.1479C14.4351 14.3202 14.3382 14.554 14.3382 14.7978V14.7978ZM9.74265 15.7169C9.49888 15.7169 9.2651 15.6201 9.09273 15.4477C8.92037 15.2753 8.82353 15.0416 8.82353 14.7978C8.82353 14.554 8.92037 14.3202 9.09273 14.1479C9.2651 13.9755 9.49888 13.8787 9.74265 13.8787C9.98641 13.8787 10.2202 13.9755 10.3926 14.1479C10.5649 14.3202 10.6618 14.554 10.6618 14.7978C10.6618 15.0416 10.5649 15.2753 10.3926 15.4477C10.2202 15.6201 9.98641 15.7169 9.74265 15.7169V15.7169ZM18.9338 7.90441C18.9338 7.05123 18.5949 6.233 17.9916 5.62971C17.3883 5.02642 16.5701 4.6875 15.7169 4.6875H9.28309C8.42991 4.6875 7.61168 5.02642 7.00839 5.62971C6.4051 6.233 6.06618 7.05123 6.06618 7.90441V10.2022H5.14706C5.02518 10.2022 4.90829 10.2506 4.8221 10.3368C4.73592 10.423 4.6875 10.5399 4.6875 10.6618C4.6875 10.7836 4.73592 10.9005 4.8221 10.9867C4.90829 11.0729 5.02518 11.1213 5.14706 11.1213H6.06618V18.0147C6.06618 18.3804 6.21143 18.731 6.46998 18.9896C6.72853 19.2481 7.07921 19.3934 7.44485 19.3934H8.36397C8.72962 19.3934 9.08029 19.2481 9.33884 18.9896C9.59739 18.731 9.74265 18.3804 9.74265 18.0147V17.5551H15.2574V18.0147C15.2574 18.3804 15.4026 18.731 15.6612 18.9896C15.9197 19.2481 16.2704 19.3934 16.636 19.3934H17.5551C17.9208 19.3934 18.2715 19.2481 18.53 18.9896C18.7886 18.731 18.9338 18.3804 18.9338 18.0147V11.1213H19.8529C19.9748 11.1213 20.0917 11.0729 20.1779 10.9867C20.2641 10.9005 20.3125 10.7836 20.3125 10.6618C20.3125 10.5399 20.2641 10.423 20.1779 10.3368C20.0917 10.2506 19.9748 10.2022 19.8529 10.2022H18.9338V7.90441ZM6.98529 7.90441C6.98529 7.295 7.22738 6.71055 7.6583 6.27963C8.08922 5.84871 8.67368 5.60662 9.28309 5.60662H15.7169C16.3263 5.60662 16.9108 5.84871 17.3417 6.27963C17.7726 6.71055 18.0147 7.295 18.0147 7.90441V12.0404H6.98529V7.90441ZM8.82353 17.5551V18.0147C8.82353 18.1366 8.77511 18.2535 8.68893 18.3397C8.60274 18.4258 8.48585 18.4743 8.36397 18.4743H7.44485C7.32297 18.4743 7.20608 18.4258 7.1199 18.3397C7.03371 18.2535 6.98529 18.1366 6.98529 18.0147V17.5551H8.82353ZM18.0147 17.5551V18.0147C18.0147 18.1366 17.9663 18.2535 17.8801 18.3397C17.7939 18.4258 17.677 18.4743 17.5551 18.4743H16.636C16.5141 18.4743 16.3973 18.4258 16.3111 18.3397C16.2249 18.2535 16.1765 18.1366 16.1765 18.0147V17.5551H18.0147ZM18.0147 16.636H6.98529V12.9596H18.0147V16.636Z" fill="white"/>
</svg>
