<svg width="268" height="94" viewBox="0 0 268 94" fill="none" xmlns="http://www.w3.org/2000/svg">
<path d="M45.4209 68.1542L41.3993 78.9865C36.6051 80.8799 31.8065 82.7711 27.0124 84.6692L0 79.8865L30.2616 5.68274L44.6462 0L63.7429 3.38139L94.1025 88.3172L79.7179 93.9999L52.3136 89.1489L45.4232 68.1564L45.4209 68.1542ZM192.445 74.4772C192.445 78.6811 195.355 82.5592 200.302 82.5592C202.015 82.5592 203.761 82.0101 204.797 80.9756V82.14H208.872V66.7825H204.797V67.9787C203.763 66.9442 202.018 66.3609 200.302 66.3609C195.355 66.3609 192.445 70.2732 192.445 74.4772ZM196.519 74.4772C196.519 72.1166 198.201 70.1115 200.625 70.1115C202.792 70.1115 204.959 71.5652 204.959 74.4772C204.959 77.3869 202.792 78.8087 200.625 78.8087C198.201 78.8087 196.519 76.8355 196.519 74.4772ZM175.923 66.7825H174.597C169.849 66.7825 166.385 70.0476 166.385 74.4453C166.385 79.1665 169.587 82.14 174.565 82.14H175.923V88.7364H179.998V82.14H181.356C186.334 82.14 189.536 79.1642 189.536 74.4453C189.536 70.0476 186.072 66.7825 181.324 66.7825H179.998V60.5096H175.923V66.7825ZM181.387 70.3393C183.942 70.3393 185.462 72.0209 185.462 74.4453C185.462 76.8378 184.099 78.5832 181.387 78.5832H179.998V70.3393H181.387ZM175.923 70.3393V78.5832H174.534C171.822 78.5832 170.459 76.8378 170.459 74.4453C170.459 72.0209 171.979 70.3393 174.534 70.3393H175.923ZM149.41 66.7825V82.14H157.914C162.15 82.14 164.057 79.6176 164.057 76.676C164.057 73.7663 162.145 71.212 157.914 71.212H153.484V66.7825H149.41ZM153.484 74.7688H157.784C159.142 74.7688 159.983 75.4797 159.983 76.676C159.983 77.9041 159.137 78.5832 157.784 78.5832H153.484V74.7688ZM131.432 66.7825V73.0554C131.432 75.2496 131.33 78.3576 129.072 78.3576H127.907V82.14H129.491C134.729 82.14 135.504 77.0314 135.504 73.183V70.337H140.517V82.1377H144.591V66.7802H131.432V66.7825ZM108.574 74.4772C108.574 78.6811 111.483 82.5592 116.43 82.5592C118.144 82.5592 119.889 82.0101 120.923 80.9756V82.14H124.998V66.7825H120.923V67.9787C119.889 66.9442 118.144 66.3609 116.43 66.3609C111.483 66.3609 108.574 70.2732 108.574 74.4772ZM112.648 74.4772C112.648 72.1166 114.329 70.1115 116.754 70.1115C118.918 70.1115 121.085 71.5652 121.085 74.4772C121.085 77.3869 118.918 78.8087 116.754 78.8087C114.329 78.8087 112.648 76.8355 112.648 74.4772ZM263.707 38.052L256.304 47.7838V38.052H252.23V53.4096H256.304L263.707 43.6778V53.4096H267.782V38.052H263.707ZM253.62 30.3254C253.846 33.6567 256.562 36.0492 259.989 36.0492C263.416 36.0492 266.132 33.6567 266.357 30.3254H262.994C262.832 31.7472 261.636 32.686 259.989 32.686C258.339 32.686 257.143 31.7472 256.981 30.3254H253.62ZM243.499 38.052L236.096 47.7838V38.052H232.022V53.4096H236.096L243.499 43.6778V53.4096H247.573V38.052H243.499ZM223.29 38.052V43.8715H215.885V38.052H211.811V53.4096H215.885V47.4283H223.29V53.4096H227.364V38.052H223.29ZM190.732 45.7467C190.732 49.9507 193.642 53.8288 198.588 53.8288C200.302 53.8288 202.047 53.2797 203.082 52.2452V53.4096H207.156V38.052H203.082V39.2483C202.047 38.2138 200.302 37.6305 198.588 37.6305C193.642 37.6305 190.732 41.5428 190.732 45.7467ZM194.806 45.7467C194.806 43.3862 196.488 41.381 198.912 41.381C201.079 41.381 203.243 42.8347 203.243 45.7467C203.243 48.6565 201.077 50.0783 198.912 50.0783C196.488 50.0783 194.806 48.1051 194.806 45.7467ZM171.624 38.052V53.4096H175.698V41.6089H182.875V53.4096H186.949V38.052H171.624ZM162.895 44.7442V53.4096H166.969V38.052H162.765L157.203 46.5556L151.673 38.052H147.405V53.4096H151.479V44.7442L157.169 53.4096L162.892 44.7442H162.895ZM135.281 37.6305C130.528 37.6305 126.939 41.0894 126.939 45.7467C126.939 50.37 130.528 53.8288 135.281 53.8288C140.034 53.8288 143.623 50.37 143.623 45.7467C143.623 41.0916 140.034 37.6305 135.281 37.6305ZM135.281 41.381C137.705 41.381 139.548 43.1583 139.548 45.7467C139.548 48.301 137.705 50.0783 135.281 50.0783C132.856 50.0783 131.013 48.301 131.013 45.7467C131.013 43.1606 132.856 41.381 135.281 41.381ZM109.446 38.0498V53.4073H113.52V47.8134L119.793 53.4073H125.419L117.173 45.7445L125.451 38.0498H119.793L113.52 43.9991V38.0498H109.446ZM202.371 17.0163C202.371 21.2203 205.28 25.0984 210.227 25.0984C211.941 25.0984 213.686 24.5493 214.721 23.5148V24.6791H218.795V9.32161H214.721V10.5179C213.686 9.48339 211.941 8.90007 210.227 8.90007C205.28 8.90007 202.371 12.8124 202.371 17.0163ZM206.445 17.0163C206.445 14.6557 208.126 12.6506 210.551 12.6506C212.718 12.6506 214.882 14.1043 214.882 17.0163C214.882 19.9261 212.715 21.3479 210.551 21.3479C208.126 21.3479 206.445 19.3746 206.445 17.0163ZM183.263 9.32161V24.6791H187.337V12.8784H194.514V24.6791H198.588V9.32161H183.263ZM163.282 9.32161V24.6791H167.356V12.8784H174.534V24.6791H178.608V9.32161H163.282ZM160.662 9.32161H156.33L151.739 19.2151L147.147 9.32161H142.654L149.476 24.1938L148.927 25.4538C148.184 27.0716 147.339 27.7165 146.179 27.7165H144.434V31.2733H146.696C150.545 31.2733 151.19 29.9472 153.227 25.4858L160.664 9.31933L160.662 9.32161ZM141.262 16.9844C141.262 12.7805 138.352 8.90007 133.405 8.90007C131.692 8.90007 129.947 9.44921 128.912 10.4837V9.31933H124.838V31.2733H128.912V23.4806C129.947 24.5151 131.692 25.0961 133.405 25.0961C138.352 25.0961 141.262 21.1838 141.262 16.9799V16.9844ZM137.188 16.9844C137.188 19.345 135.506 21.3502 133.082 21.3502C130.915 21.3502 128.75 19.8942 128.75 16.9844C128.75 14.0747 130.917 12.6529 133.082 12.6529C135.506 12.6529 137.188 14.6261 137.188 16.9844ZM121.634 9.32161H109.444V24.6791H113.518V12.8784H121.634V9.32161Z" fill="#2F76B3"/>
</svg>
