<svg width="137" height="48" viewBox="0 0 137 48" fill="none" xmlns="http://www.w3.org/2000/svg">
<path d="M23.2275 34.8021L21.1709 40.3335C18.7193 41.3004 16.2653 42.2662 13.8137 43.2354L0 40.7931L15.4753 2.90183L22.8314 0L32.5971 1.72667L48.1225 45.0982L40.7665 48L26.7523 45.5229L23.2287 34.8033L23.2275 34.8021ZM98.4135 38.0309C98.4135 40.1776 99.9015 42.1579 102.431 42.1579C103.307 42.1579 104.2 41.8775 104.73 41.3493V41.9439H106.814V34.1017H104.73V34.7126C104.201 34.1843 103.309 33.8865 102.431 33.8865C99.9015 33.8865 98.4135 35.8842 98.4135 38.0309ZM100.497 38.0309C100.497 36.8255 101.357 35.8016 102.597 35.8016C103.705 35.8016 104.813 36.5439 104.813 38.0309C104.813 39.5167 103.705 40.2428 102.597 40.2428C101.357 40.2428 100.497 39.2352 100.497 38.0309ZM89.9645 34.1017H89.2863C86.858 34.1017 85.0869 35.769 85.0869 38.0146C85.0869 40.4255 86.724 41.9439 89.27 41.9439H89.9645V45.3123H92.0479V41.9439H92.7424C95.2884 41.9439 96.9255 40.4243 96.9255 38.0146C96.9255 35.769 95.1544 34.1017 92.7261 34.1017H92.0479V30.8985H89.9645V34.1017ZM92.7587 35.918C94.0649 35.918 94.8421 36.7767 94.8421 38.0146C94.8421 39.2363 94.1453 40.1276 92.7587 40.1276H92.0479V35.918H92.7587ZM89.9645 35.918V40.1276H89.2537C87.8671 40.1276 87.1703 39.2363 87.1703 38.0146C87.1703 36.7767 87.9475 35.918 89.2537 35.918H89.9645ZM76.406 34.1017V41.9439H80.7546C82.9207 41.9439 83.896 40.6558 83.896 39.1537C83.896 37.6679 82.9184 36.3636 80.7546 36.3636H78.4894V34.1017H76.406V34.1017ZM78.4894 38.1799H80.6882C81.3826 38.1799 81.8126 38.5429 81.8126 39.1537C81.8126 39.7809 81.3803 40.1276 80.6882 40.1276H78.4894V38.1799ZM67.2124 34.1017V37.3049C67.2124 38.4254 67.1599 40.0124 66.0052 40.0124H65.4098V41.9439H66.2196C68.8984 41.9439 69.2946 39.3352 69.2946 37.37V35.9168H71.8581V41.9427H73.9415V34.1005H67.2124V34.1017ZM55.5229 38.0309C55.5229 40.1776 57.0108 42.1579 59.5405 42.1579C60.4168 42.1579 61.3094 41.8775 61.8384 41.3493V41.9439H63.9218V34.1017H61.8384V34.7126C61.3094 34.1843 60.4168 33.8865 59.5405 33.8865C57.0108 33.8865 55.5229 35.8842 55.5229 38.0309V38.0309ZM57.6063 38.0309C57.6063 36.8255 58.4662 35.8016 59.706 35.8016C60.813 35.8016 61.9211 36.5439 61.9211 38.0309C61.9211 39.5167 60.813 40.2428 59.706 40.2428C58.4662 40.2428 57.6063 39.2352 57.6063 38.0309V38.0309ZM134.856 19.4308L131.07 24.4003V19.4308H128.987V27.273H131.07L134.856 22.3036V27.273H136.939V19.4308H134.856ZM129.697 15.4853C129.813 17.1864 131.202 18.4081 132.954 18.4081C134.707 18.4081 136.096 17.1864 136.211 15.4853H134.491C134.408 16.2114 133.797 16.6907 132.954 16.6907C132.111 16.6907 131.499 16.2114 131.416 15.4853H129.697V15.4853ZM124.522 19.4308L120.736 24.4003V19.4308H118.652V27.273H120.736L124.522 22.3036V27.273H126.605V19.4308H124.522ZM114.187 19.4308V22.4025H110.4V19.4308H108.317V27.273H110.4V24.2187H114.187V27.273H116.271V19.4308H114.187ZM97.5373 23.3601C97.5373 25.5068 99.0253 27.4871 101.555 27.4871C102.431 27.4871 103.324 27.2067 103.853 26.6784V27.273H105.936V19.4308H103.853V20.0417C103.324 19.5135 102.431 19.2156 101.555 19.2156C99.0253 19.2156 97.5373 21.2134 97.5373 23.3601V23.3601ZM99.6207 23.3601C99.6207 22.1547 100.481 21.1308 101.72 21.1308C102.829 21.1308 103.936 21.8731 103.936 23.3601C103.936 24.8459 102.827 25.5719 101.72 25.5719C100.481 25.5719 99.6207 24.5643 99.6207 23.3601ZM87.7657 19.4308V27.273H89.8492V21.2471H93.5196V27.273H95.603V19.4308H87.7657ZM83.3018 22.8481V27.273H85.3852V19.4308H83.2353L80.391 23.7731L77.563 19.4308H75.3806V27.273H77.464V22.8481L80.3736 27.273L83.3006 22.8481H83.3018ZM69.1804 19.2156C66.7498 19.2156 64.9145 20.9818 64.9145 23.3601C64.9145 25.7209 66.7498 27.4871 69.1804 27.4871C71.6111 27.4871 73.4463 25.7209 73.4463 23.3601C73.4463 20.983 71.6111 19.2156 69.1804 19.2156ZM69.1804 21.1308C70.4202 21.1308 71.3629 22.0383 71.3629 23.3601C71.3629 24.6644 70.4202 25.5719 69.1804 25.5719C67.9406 25.5719 66.998 24.6644 66.998 23.3601C66.998 22.0395 67.9406 21.1308 69.1804 21.1308ZM55.9691 19.4297V27.2718H58.0526V24.4154L61.2604 27.2718H64.1373L59.9204 23.3589L64.1537 19.4297H61.2604L58.0526 22.4676V19.4297H55.9691ZM103.489 8.68919C103.489 10.8359 104.977 12.8162 107.507 12.8162C108.383 12.8162 109.276 12.5358 109.805 12.0076V12.6021H111.888V4.75997H109.805V5.37082C109.276 4.84258 108.383 4.54472 107.507 4.54472C104.977 4.54472 103.489 6.54249 103.489 8.68919V8.68919ZM105.573 8.68919C105.573 7.48378 106.433 6.45988 107.672 6.45988C108.781 6.45988 109.887 7.20221 109.887 8.68919C109.887 10.175 108.779 10.9011 107.672 10.9011C106.433 10.9011 105.573 9.89344 105.573 8.68919ZM93.7177 4.75997V12.6021H95.8011V6.57623H99.4716V12.6021H101.555V4.75997H93.7177V4.75997ZM83.4998 4.75997V12.6021H85.5833V6.57623H89.2537V12.6021H91.3371V4.75997H83.4998V4.75997ZM82.1598 4.75997H79.9448L77.5968 9.81199L75.2489 4.75997H72.9511L76.4398 12.3543L76.1589 12.9977C75.7791 13.8238 75.3468 14.1531 74.7537 14.1531H73.8611V15.9694H75.0182C76.9863 15.9694 77.316 15.2922 78.3577 13.014L82.161 4.75881L82.1598 4.75997ZM72.2391 8.6729C72.2391 6.5262 70.7511 4.54472 68.2215 4.54472C67.3452 4.54472 66.4526 4.82513 65.9236 5.35337V4.75881H63.8402V15.9694H65.9236V11.9901C66.4526 12.5183 67.3452 12.815 68.2215 12.815C70.7511 12.815 72.2391 10.8173 72.2391 8.67058V8.6729ZM70.1557 8.6729C70.1557 9.87831 69.2958 10.9022 68.056 10.9022C66.9479 10.9022 65.8409 10.1587 65.8409 8.6729C65.8409 7.18708 66.949 6.46105 68.056 6.46105C69.2958 6.46105 70.1557 7.46866 70.1557 8.6729ZM62.2019 4.75997H55.968V12.6021H58.0514V6.57623H62.2019V4.75997Z" fill="#2F76B3"/>
</svg>
