<svg width="193" height="68" viewBox="0 0 193 68" fill="none" xmlns="http://www.w3.org/2000/svg">
<path d="M32.7365 49.0496L29.838 56.8454C26.3827 58.2082 22.9241 59.5692 19.4688 60.9352L0 57.4932L21.8107 4.08979L32.1782 0L45.9418 2.43354L67.8231 63.5606L57.4556 67.6504L37.7043 64.1592L32.7382 49.0512L32.7365 49.0496ZM138.702 53.6002C138.702 56.6257 140.8 59.4167 144.365 59.4167C145.6 59.4167 146.858 59.0215 147.605 58.277V59.115H150.541V48.0624H147.605V48.9233C146.859 48.1788 145.602 47.759 144.365 47.759C140.8 47.759 138.702 50.5746 138.702 53.6002ZM141.639 53.6002C141.639 51.9013 142.851 50.4582 144.598 50.4582C146.16 50.4582 147.722 51.5044 147.722 53.6002C147.722 55.6943 146.16 56.7175 144.598 56.7175C142.851 56.7175 141.639 55.2974 141.639 53.6002ZM126.795 48.0624H125.839C122.416 48.0624 119.92 50.4123 119.92 53.5772C119.92 56.975 122.227 59.115 125.816 59.115H126.795V63.8624H129.731V59.115H130.71C134.298 59.115 136.605 56.9733 136.605 53.5772C136.605 50.4123 134.109 48.0624 130.687 48.0624H129.731V43.5479H126.795V48.0624ZM130.733 50.6222C132.574 50.6222 133.669 51.8324 133.669 53.5772C133.669 55.2991 132.687 56.5552 130.733 56.5552H129.731V50.6222H130.733ZM126.795 50.6222V56.5552H125.793C123.838 56.5552 122.856 55.2991 122.856 53.5772C122.856 51.8324 123.952 50.6222 125.793 50.6222H126.795ZM107.685 48.0624V59.115H113.814C116.867 59.115 118.242 57.2997 118.242 55.1826C118.242 53.0885 116.864 51.2503 113.814 51.2503H110.622V48.0624H107.685ZM110.622 53.8101H113.721C114.699 53.8101 115.305 54.3217 115.305 55.1826C115.305 56.0665 114.696 56.5552 113.721 56.5552H110.622V53.8101ZM94.728 48.0624V52.5769C94.728 54.1561 94.6541 56.3928 93.0267 56.3928H92.1875V59.115H93.3288C97.1043 59.115 97.6627 55.4384 97.6627 52.6687V50.6206H101.276V59.1134H104.212V48.0608H94.728V48.0624ZM78.253 53.6002C78.253 56.6257 80.3502 59.4167 83.9155 59.4167C85.1504 59.4167 86.4084 59.0215 87.154 58.277V59.115H90.0903V48.0624H87.154V48.9233C86.4084 48.1788 85.1504 47.759 83.9155 47.759C80.3502 47.759 78.253 50.5746 78.253 53.6002ZM81.1893 53.6002C81.1893 51.9013 82.4013 50.4582 84.1487 50.4582C85.7088 50.4582 87.2706 51.5044 87.2706 53.6002C87.2706 55.6943 85.7088 56.7175 84.1487 56.7175C82.4013 56.7175 81.1893 55.2974 81.1893 53.6002ZM190.064 27.3855L184.728 34.3893V27.3855H181.792V38.4381H184.728L190.064 31.4343V38.4381H193V27.3855H190.064ZM182.793 21.8248C182.956 24.2222 184.914 25.9441 187.384 25.9441C189.853 25.9441 191.811 24.2222 191.974 21.8248H189.55C189.433 22.848 188.571 23.5237 187.384 23.5237C186.195 23.5237 185.332 22.848 185.216 21.8248H182.793ZM175.499 27.3855L170.163 34.3893V27.3855H167.227V38.4381H170.163L175.499 31.4343V38.4381H178.435V27.3855H175.499ZM160.934 27.3855V31.5737H155.596V27.3855H152.66V38.4381H155.596V34.1335H160.934V38.4381H163.87V27.3855H160.934ZM137.467 32.9233C137.467 35.9488 139.565 38.7398 143.13 38.7398C144.365 38.7398 145.623 38.3446 146.368 37.6001V38.4381H149.305V27.3855H146.368V28.2464C145.623 27.5019 144.365 27.0821 143.13 27.0821C139.565 27.0821 137.467 29.8978 137.467 32.9233ZM140.404 32.9233C140.404 31.2244 141.616 29.7813 143.363 29.7813C144.925 29.7813 146.485 30.8276 146.485 32.9233C146.485 35.0174 144.923 36.0406 143.363 36.0406C141.616 36.0406 140.404 34.6205 140.404 32.9233ZM123.696 27.3855V38.4381H126.632V29.9453H131.805V38.4381H134.741V27.3855H123.696ZM117.404 32.2018V38.4381H120.34V27.3855H117.311L113.302 33.5054L109.316 27.3855H106.24V38.4381H109.176V32.2018L113.277 38.4381L117.403 32.2018H117.404ZM97.5018 27.0821C94.0761 27.0821 91.4895 29.5714 91.4895 32.9233C91.4895 36.2505 94.0761 38.7398 97.5018 38.7398C100.928 38.7398 103.514 36.2505 103.514 32.9233C103.514 29.5731 100.928 27.0821 97.5018 27.0821ZM97.5018 29.7813C99.2491 29.7813 100.578 31.0604 100.578 32.9233C100.578 34.7616 99.2491 36.0406 97.5018 36.0406C95.7544 36.0406 94.4258 34.7616 94.4258 32.9233C94.4258 31.0621 95.7544 29.7813 97.5018 29.7813ZM78.882 27.3839V38.4365H81.8183V34.4106L86.3394 38.4365H90.3941L84.4508 32.9216L90.4171 27.3839H86.3394L81.8183 31.6655V27.3839H78.882ZM145.856 12.2464C145.856 15.2719 147.953 18.063 151.519 18.063C152.753 18.063 154.011 17.6678 154.757 16.9233V17.7612H157.693V6.70863H154.757V7.56955C154.011 6.82506 152.753 6.40526 151.519 6.40526C147.953 6.40526 145.856 9.22088 145.856 12.2464ZM148.792 12.2464C148.792 10.5475 150.004 9.10445 151.752 9.10445C153.313 9.10445 154.874 10.1507 154.874 12.2464C154.874 14.3405 153.312 15.3638 151.752 15.3638C150.004 15.3638 148.792 13.9437 148.792 12.2464ZM132.084 6.70863V17.7612H135.021V9.26844H140.194V17.7612H143.13V6.70863H132.084ZM117.683 6.70863V17.7612H120.62V9.26844H125.793V17.7612H128.729V6.70863H117.683ZM115.795 6.70863H112.673L109.364 13.8289L106.055 6.70863H102.816L107.733 17.4119L107.337 18.3188C106.802 19.4831 106.193 19.9471 105.357 19.9471H104.099V22.507H105.729C108.503 22.507 108.968 21.5526 110.436 18.3417L115.796 6.70699L115.795 6.70863ZM101.813 12.2234C101.813 9.19792 99.7155 6.40526 96.1502 6.40526C94.9152 6.40526 93.6573 6.80046 92.9117 7.54495V6.70699H89.9754V22.507H92.9117V16.8987C93.6573 17.6432 94.9152 18.0613 96.1502 18.0613C99.7155 18.0613 101.813 15.2457 101.813 12.2202V12.2234ZM98.8763 12.2234C98.8763 13.9223 97.6644 15.3654 95.917 15.3654C94.3552 15.3654 92.7951 14.3175 92.7951 12.2234C92.7951 10.1294 94.3569 9.10609 95.917 9.10609C97.6644 9.10609 98.8763 10.5262 98.8763 12.2234ZM87.6664 6.70863H78.8803V17.7612H81.8167V9.26844H87.6664V6.70863Z" fill="white"/>
</svg>
