<svg width="169" height="60" viewBox="0 0 169 60" fill="none" xmlns="http://www.w3.org/2000/svg">
<path d="M28.6657 43.0129L26.1275 49.8493C23.1019 51.0443 20.0734 52.2378 17.0478 53.4357L0 50.4173L19.0985 3.58644L28.1767 0L40.2289 2.13403L59.3891 55.738L50.3109 59.3244L33.0157 56.2629L28.6671 43.0143L28.6657 43.0129ZM121.454 47.0034C121.454 49.6566 123.291 52.1041 126.413 52.1041C127.494 52.1041 128.596 51.7575 129.25 51.1047V51.8395H131.821V42.1472H129.25V42.9021C128.597 42.2493 127.496 41.8811 126.413 41.8811C123.291 41.8811 121.454 44.3502 121.454 47.0034ZM124.026 47.0034C124.026 45.5136 125.087 44.2481 126.617 44.2481C127.985 44.2481 129.352 45.1656 129.352 47.0034C129.352 48.8398 127.985 49.7371 126.617 49.7371C125.087 49.7371 124.026 48.4918 124.026 47.0034ZM111.027 42.1472H110.19C107.194 42.1472 105.008 44.2079 105.008 46.9833C105.008 49.9629 107.028 51.8395 110.17 51.8395H111.027V56.0026H113.599V51.8395H114.456C117.598 51.8395 119.618 49.9614 119.618 46.9833C119.618 44.2079 117.432 42.1472 114.435 42.1472H113.599V38.1883H111.027V42.1472ZM114.476 44.3919C116.088 44.3919 117.047 45.4532 117.047 46.9833C117.047 48.4932 116.187 49.5947 114.476 49.5947H113.599V44.3919H114.476ZM111.027 44.3919V49.5947H110.15C108.439 49.5947 107.579 48.4932 107.579 46.9833C107.579 45.4532 108.538 44.3919 110.15 44.3919H111.027ZM94.2944 42.1472V51.8395H99.6611C102.334 51.8395 103.538 50.2476 103.538 48.3911C103.538 46.5547 102.332 44.9427 99.6611 44.9427H96.8656V42.1472H94.2944ZM96.8656 47.1875H99.5792C100.436 47.1875 100.967 47.6361 100.967 48.3911C100.967 49.1662 100.433 49.5947 99.5792 49.5947H96.8656V47.1875ZM82.9484 42.1472V46.1061C82.9484 47.4909 82.8837 49.4524 81.4586 49.4524H80.7237V51.8395H81.7232C85.0292 51.8395 85.5181 48.6154 85.5181 46.1866V44.3905H88.6818V51.8381H91.253V42.1457H82.9484V42.1472ZM68.5221 47.0034C68.5221 49.6566 70.3584 52.1041 73.4804 52.1041C74.5618 52.1041 75.6633 51.7575 76.3162 51.1047V51.8395H78.8874V42.1472H76.3162V42.9021C75.6633 42.2493 74.5618 41.8811 73.4804 41.8811C70.3584 41.8811 68.5221 44.3502 68.5221 47.0034ZM71.0933 47.0034C71.0933 45.5136 72.1545 44.2481 73.6846 44.2481C75.0507 44.2481 76.4183 45.1656 76.4183 47.0034C76.4183 48.8398 75.0507 49.7371 73.6846 49.7371C72.1545 49.7371 71.0933 48.4918 71.0933 47.0034ZM166.429 24.0151L161.757 30.1569V24.0151H159.185V33.7074H161.757L166.429 27.5656V33.7074H169V24.0151H166.429ZM160.063 19.1387C160.205 21.2411 161.919 22.7511 164.082 22.7511C166.245 22.7511 167.959 21.2411 168.101 19.1387H165.979C165.877 20.0361 165.122 20.6285 164.082 20.6285C163.041 20.6285 162.286 20.0361 162.184 19.1387H160.063ZM153.675 24.0151L149.003 30.1569V24.0151H146.432V33.7074H149.003L153.675 27.5656V33.7074H156.246V24.0151H153.675ZM140.921 24.0151V27.6878H136.247V24.0151H133.676V33.7074H136.247V29.9326H140.921V33.7074H143.492V24.0151H140.921ZM120.373 28.8713C120.373 31.5245 122.209 33.972 125.331 33.972C126.413 33.972 127.514 33.6254 128.167 32.9726V33.7074H130.738V24.0151H128.167V24.77C127.514 24.1172 126.413 23.749 125.331 23.749C122.209 23.749 120.373 26.2181 120.373 28.8713ZM122.944 28.8713C122.944 27.3815 124.006 26.116 125.536 26.116C126.903 26.116 128.269 27.0335 128.269 28.8713C128.269 30.7077 126.902 31.605 125.536 31.605C124.006 31.605 122.944 30.3597 122.944 28.8713ZM108.314 24.0151V33.7074H110.885V26.2598H115.415V33.7074H117.986V24.0151H108.314ZM102.805 28.2386V33.7074H105.376V24.0151H102.723L99.2125 29.3818L95.7224 24.0151H93.0289V33.7074H95.6001V28.2386L99.1909 33.7074L102.803 28.2386H102.805ZM85.3772 23.749C82.3775 23.749 80.1126 25.932 80.1126 28.8713C80.1126 31.7891 82.3775 33.972 85.3772 33.972C88.3769 33.972 90.6418 31.7891 90.6418 28.8713C90.6418 25.9334 88.3769 23.749 85.3772 23.749ZM85.3772 26.116C86.9073 26.116 88.0706 27.2377 88.0706 28.8713C88.0706 30.4833 86.9073 31.605 85.3772 31.605C83.8471 31.605 82.6838 30.4833 82.6838 28.8713C82.6838 27.2391 83.8471 26.116 85.3772 26.116ZM69.0728 24.0136V33.706H71.644V30.1756L75.6029 33.706H79.1534L73.9492 28.8699L79.1735 24.0136H75.6029L71.644 27.7683V24.0136H69.0728ZM127.719 10.7392C127.719 13.3924 129.555 15.8399 132.677 15.8399C133.758 15.8399 134.86 15.4933 135.513 14.8405V15.5753H138.084V5.88297H135.513V6.63794C134.86 5.98507 133.758 5.61694 132.677 5.61694C129.555 5.61694 127.719 8.08603 127.719 10.7392ZM130.29 10.7392C130.29 9.2494 131.351 7.98393 132.881 7.98393C134.249 7.98393 135.615 8.9014 135.615 10.7392C135.615 12.5756 134.247 13.4729 132.881 13.4729C131.351 13.4729 130.29 12.2276 130.29 10.7392ZM115.659 5.88297V15.5753H118.23V8.12774H122.76V15.5753H125.331V5.88297H115.659ZM103.049 5.88297V15.5753H105.62V8.12774H110.15V15.5753H112.721V5.88297H103.049ZM101.395 5.88297H98.6617L95.7641 12.1269L92.8664 5.88297H90.0307L94.3361 15.269L93.9895 16.0642C93.5208 17.0852 92.9872 17.4922 92.2553 17.4922H91.1538V19.7369H92.5817C95.0106 19.7369 95.4175 18.9 96.7031 16.0843L101.397 5.88154L101.395 5.88297ZM89.152 10.7191C89.152 8.0659 87.3157 5.61694 84.1937 5.61694C83.1123 5.61694 82.0108 5.9635 81.3579 6.61637V5.88154H78.7867V19.7369H81.3579V14.8189C82.0108 15.4717 83.1123 15.8384 84.1937 15.8384C87.3157 15.8384 89.152 13.3694 89.152 10.7162V10.7191ZM86.5808 10.7191C86.5808 12.2089 85.5196 13.4743 83.9895 13.4743C82.6219 13.4743 81.2558 12.5554 81.2558 10.7191C81.2558 8.8827 82.6234 7.98537 83.9895 7.98537C85.5196 7.98537 86.5808 9.23071 86.5808 10.7191ZM76.7648 5.88297H69.0714V15.5753H71.6426V8.12774H76.7648V5.88297Z" fill="white"/>
</svg>
